<?xml version="1.0" standalone="no"?>
<!DOCTYPE svg PUBLIC "-//W3C//DTD SVG 20010904//EN"
 "http://www.w3.org/TR/2001/REC-SVG-20010904/DTD/svg10.dtd">
<svg version="1.0" xmlns="http://www.w3.org/2000/svg"
 width="500.000000pt" height="500.000000pt" viewBox="0 0 500.000000 500.000000"
 preserveAspectRatio="xMidYMid meet">

<g transform="translate(0.000000,500.000000) scale(0.100000,-0.100000)"
fill="#000000" stroke="none">
<path d="M0 2500 l0 -2500 2500 0 2500 0 0 2500 0 2500 -2500 0 -2500 0 0
-2500z m2627 2108 c22 -20 23 -29 23 -143 l0 -121 -80 -39 -80 -39 0 -93 0
-93 -45 0 -45 0 0 123 c0 68 3 192 7 275 l6 152 95 0 c84 0 98 -3 119 -22z
m-544 -50 c17 -17 36 -75 75 -224 29 -110 52 -213 52 -227 0 -40 -29 -62 -104
-81 -60 -15 -69 -15 -96 -1 -18 10 -32 27 -38 48 -66 245 -104 409 -98 431 7
29 30 44 96 62 66 18 88 17 113 -8z m1015 -14 c34 -9 62 -19 62 -23 0 -3 -5
-22 -10 -42 l-10 -37 -47 14 c-25 8 -52 14 -59 14 -7 0 -20 -23 -29 -52 -21
-71 -20 -81 8 -75 12 4 41 9 64 13 l42 6 -13 -41 c-15 -53 -19 -56 -92 -71
l-61 -12 -14 -57 c-7 -31 -13 -60 -14 -66 0 -5 25 -16 55 -25 58 -17 60 -22
40 -75 l-9 -23 -93 25 c-51 14 -96 28 -100 32 -9 8 119 470 135 490 15 17 48
30 67 26 8 -2 43 -11 78 -21z m-1526 -176 c18 -15 118 -183 118 -199 0 -5 -7
-20 -15 -33 -15 -22 -13 -24 90 -97 57 -41 103 -78 102 -83 -2 -5 -19 -18 -38
-29 l-35 -20 -90 65 c-49 37 -93 64 -97 61 -7 -4 12 -44 72 -144 l22 -37 -38
-22 c-45 -27 -26 -50 -190 233 -91 159 -123 221 -115 229 25 25 149 88 173 88
14 0 32 -6 41 -12z m1967 -14 c87 -50 108 -84 81 -135 -14 -25 -116 -29 -106
-4 3 8 8 21 12 29 3 7 -6 20 -20 29 -24 16 -24 16 -60 -44 -20 -33 -36 -62
-36 -65 0 -2 36 -4 79 -4 44 0 82 -3 84 -7 7 -12 -150 -274 -179 -300 -34 -31
-49 -29 -123 15 -79 45 -92 74 -63 130 20 39 49 50 98 38 l23 -6 -21 -36 c-20
-34 -20 -35 -2 -49 11 -8 24 -15 29 -15 6 0 29 31 51 69 l42 69 -45 6 c-25 3
-63 6 -84 6 -22 0 -39 2 -39 6 0 15 146 252 167 272 31 29 56 28 112 -4z
m-2411 -308 c50 -26 63 -48 51 -87 -6 -19 -13 -40 -15 -48 -3 -10 -14 -5 -39
19 l-35 34 -22 -22 -23 -22 135 -135 134 -135 23 22 23 22 -47 48 c-34 35 -49
44 -51 33 -5 -22 -14 -19 -49 18 l-31 32 19 63 c11 34 23 62 27 62 4 0 63 -56
132 -125 l125 -125 -70 -70 c-105 -106 -101 -107 -302 93 -196 195 -195 193
-104 280 63 60 76 65 119 43z m2871 -50 c60 -64 65 -95 24 -144 l-28 -33 -48
17 -48 16 25 27 c31 32 32 42 7 65 -18 16 -24 12 -157 -118 l-139 -134 22 -23
23 -23 24 23 c22 21 28 22 63 11 21 -7 41 -15 45 -19 13 -12 -85 -100 -119
-107 -27 -5 -37 0 -78 37 -55 51 -78 92 -70 122 4 12 80 93 169 179 147 143
164 157 197 158 31 0 43 -8 88 -54z m-1704 -170 c-251 -53 -377 -106 -471
-200 -59 -59 -122 -167 -138 -238 l-6 -28 77 -1 78 -1 -50 -12 c-73 -19 -103
-33 -157 -72 -42 -29 -48 -31 -48 -15 0 52 44 233 70 286 69 142 216 235 445
279 118 23 122 23 220 24 l90 1 -110 -23z m-1323 -302 c106 -58 203 -113 216
-120 l22 -15 -20 -40 -21 -40 -32 19 c-59 35 -164 92 -170 92 -4 0 -7 -15 -7
-34 0 -33 4 -37 85 -81 47 -25 85 -52 85 -58 0 -10 -17 -41 -36 -66 -2 -2
-101 50 -220 115 -257 142 -263 147 -219 235 36 72 62 99 96 99 17 0 106 -43
221 -106z m3310 94 c22 -19 78 -122 78 -146 0 -12 -10 -32 -22 -45 -21 -22
-418 -247 -437 -247 -10 0 -43 71 -36 78 3 3 49 29 101 57 l96 52 -32 20 -32
20 -86 -48 -86 -48 -22 37 c-13 20 -20 40 -16 44 24 23 432 238 453 238 14 0
32 -6 41 -12z m-2608 -375 c-55 -58 -106 -140 -129 -208 -42 -124 -36 -367 12
-491 4 -12 -1 -15 -27 -12 -29 3 -35 9 -47 43 -25 72 -36 220 -23 314 25 187
84 294 205 375 58 38 61 32 9 -21z m984 -15 c-43 -57 -58 -95 -58 -151 0 -66
42 -142 128 -231 67 -69 52 -63 -46 19 -114 94 -149 191 -103 290 18 40 76
105 94 105 5 0 -2 -15 -15 -32z m372 -38 c12 -17 30 -54 40 -83 14 -40 30 -62
69 -94 29 -24 48 -43 44 -43 -4 0 -51 14 -103 30 -52 16 -96 28 -97 26 -2 -2
28 -29 66 -60 99 -81 106 -91 42 -67 -28 12 -55 21 -58 21 -4 0 14 -22 41 -49
l48 -48 -35 -22 c-22 -13 -51 -21 -80 -21 -50 0 -55 3 -232 153 -105 88 -122
124 -90 186 25 49 142 87 307 100 9 0 26 -13 38 -29z m-1113 -22 c43 -45 77
-103 69 -117 -3 -4 -48 -25 -99 -46 l-95 -38 -12 -59 c-6 -33 -9 -62 -6 -65 3
-3 23 2 46 11 66 26 66 19 -1 -35 -90 -72 -90 -72 -8 -40 41 16 75 27 77 26 6
-5 -39 -87 -71 -133 -56 -78 -169 -131 -207 -97 -27 24 -43 114 -43 230 1 146
36 249 107 320 53 53 113 83 171 84 24 1 41 -9 72 -41z m322 -634 c1 -1 -17
-27 -40 -57 -35 -44 -48 -54 -66 -50 -21 5 -22 2 -17 -24 4 -20 -1 -43 -15
-71 -11 -22 -29 -71 -39 -109 l-19 -68 -17 59 c-10 32 -28 76 -41 97 -14 21
-26 43 -27 48 -2 6 46 55 107 110 l110 99 30 -15 c16 -9 32 -17 34 -19z m-872
-45 l28 -10 -29 -22 c-16 -11 -43 -36 -59 -54 -17 -18 -37 -33 -46 -33 -9 -1
-27 -7 -41 -15 -24 -14 -24 -14 20 -15 60 0 84 -15 48 -29 -157 -59 -239 -252
-194 -454 20 -89 64 -161 114 -188 l33 -17 -30 -7 c-17 -3 -40 -3 -52 0 -21 7
-22 5 -15 -41 8 -60 48 -129 89 -155 18 -10 27 -19 21 -19 -26 0 -100 62 -135
114 -81 120 -114 264 -106 461 7 190 51 324 134 416 64 71 146 96 220 68z
m2059 -36 c-51 -51 -90 -123 -111 -203 l-14 -53 30 29 c34 33 34 35 9 -86 -26
-124 -37 -343 -21 -435 12 -66 11 -70 -10 -85 -19 -15 -20 -18 -4 -23 9 -4 27
-7 40 -7 34 0 39 -15 9 -28 -21 -10 -23 -15 -14 -32 15 -28 80 -69 143 -91
l52 -18 -48 0 c-120 -2 -198 49 -261 168 -132 251 -104 646 59 839 33 39 100
72 148 72 l39 0 -46 -47z m-1091 -25 c-48 -44 -54 -53 -39 -58 17 -6 16 -8 -6
-20 -34 -18 -89 -67 -122 -108 -35 -43 -35 -36 -3 32 34 71 96 141 159 176 73
42 75 37 11 -22z m-126 -215 c-30 -64 -59 -188 -59 -256 0 -112 38 -220 109
-307 l36 -45 -37 28 c-174 133 -204 435 -58 600 17 20 33 37 34 37 1 0 -10
-26 -25 -57z m261 -52 c0 -89 0 -89 -36 -125 -34 -34 -36 -40 -32 -86 5 -49 5
-49 -57 -110 -42 -42 -65 -58 -70 -50 -5 7 14 34 49 69 51 52 56 60 56 102 0
45 18 82 52 107 15 11 18 28 18 98 0 49 4 84 10 84 6 0 10 -36 10 -89z m-476
-730 c33 -35 81 -76 105 -92 25 -16 41 -29 37 -29 -16 0 -152 73 -190 102 -53
41 -136 120 -136 130 0 4 15 14 32 21 32 13 33 13 62 -27 15 -23 56 -70 90
-105z m1348 -92 c6 -28 3 -37 -15 -51 -12 -10 -25 -18 -29 -18 -8 0 -28 91
-28 127 l0 26 32 -25 c20 -16 35 -38 40 -59z m119 -31 l23 -31 -47 -40 -47
-39 37 -47 c20 -25 40 -50 45 -55 4 -5 20 18 36 53 l29 63 31 -40 32 -40 -29
-63 -29 -64 36 -45 c19 -25 39 -49 43 -54 4 -5 29 9 54 30 l47 38 24 -27 c13
-16 24 -32 24 -37 0 -11 -152 -131 -162 -127 -3 1 -74 88 -157 194 -184 233
-184 234 -88 312 34 28 65 50 69 51 4 0 17 -14 29 -32z m-1738 -83 c18 -16 25
-30 21 -38 -30 -47 -290 -371 -310 -383 -14 -10 -34 -14 -47 -10 -37 9 -126
85 -133 113 -8 29 11 70 52 117 23 26 29 28 69 21 25 -3 45 -10 45 -14 0 -5
-16 -29 -36 -55 -35 -45 -35 -48 -18 -67 9 -10 21 -19 25 -19 4 0 71 81 149
180 78 99 144 180 148 180 4 0 20 -12 35 -25z m1440 -127 c14 -13 43 -66 66
-117 l41 -95 -22 -23 -22 -23 100 -94 99 -93 -39 -17 c-21 -9 -43 -16 -48 -16
-5 0 -42 31 -83 70 -106 100 -113 95 -54 -38 16 -35 29 -68 29 -73 0 -15 -69
-44 -78 -33 -16 17 -213 485 -210 495 5 14 147 77 175 78 12 1 33 -9 46 -21z
m-1181 -11 c62 -28 81 -48 81 -85 0 -19 -172 -447 -188 -470 -2 -2 -77 27 -82
32 -2 1 17 49 42 106 24 58 42 106 40 108 -2 3 -19 2 -38 -2 -27 -5 -36 -13
-46 -42 -7 -20 -24 -61 -37 -90 l-24 -54 -37 15 c-20 9 -39 17 -41 19 -7 8
189 462 205 474 25 18 66 15 125 -11z m426 -114 c29 -18 41 -49 35 -90 -4 -27
-11 -34 -51 -47 -25 -9 -46 -16 -47 -16 0 0 1 18 3 40 4 35 1 40 -22 46 -15 3
-29 4 -32 2 -4 -5 -55 -371 -51 -374 1 -1 16 -4 32 -6 27 -3 30 0 33 29 3 28
9 33 49 47 26 9 48 15 49 13 6 -6 -17 -130 -27 -149 -16 -29 -48 -36 -118 -27
-77 11 -111 37 -111 83 1 17 13 123 29 235 33 245 34 246 140 236 36 -4 76
-14 89 -22z m391 8 c11 -11 22 -35 26 -53 7 -43 65 -448 65 -458 0 -8 -80 -24
-86 -17 -2 2 -10 52 -19 112 -8 59 -16 110 -18 111 -1 2 -15 -7 -30 -19 l-28
-22 15 -95 c7 -52 13 -96 12 -97 -1 -1 -20 -5 -43 -9 -39 -6 -42 -4 -47 17 -7
31 -66 453 -66 472 0 28 36 60 76 67 74 15 123 11 143 -9z"/>
<path d="M2498 4461 c-2 -50 -2 -91 0 -91 2 0 16 7 33 15 29 16 30 17 27 88
-3 70 -4 72 -30 75 l-27 3 -3 -90z"/>
<path d="M1990 4481 c-18 -5 -24 -13 -22 -27 4 -20 80 -320 87 -341 3 -9 12
-10 35 -1 17 6 29 15 27 22 -2 6 -24 89 -48 183 -24 95 -46 173 -49 172 -3 -1
-16 -4 -30 -8z"/>
<path d="M1491 4271 l-23 -18 38 -66 c21 -37 41 -67 45 -67 4 0 14 11 23 25
16 24 15 27 -15 80 -17 30 -34 57 -38 59 -3 3 -17 -4 -30 -13z"/>
<path d="M739 3509 c-13 -25 -11 -28 69 -73 l62 -35 0 38 c0 35 -4 40 -49 64
-59 32 -67 33 -82 6z"/>
<path d="M4167 3501 c-37 -21 -70 -40 -73 -44 -3 -3 8 -13 26 -22 31 -16 34
-16 86 12 57 30 60 35 41 70 l-12 21 -68 -37z"/>
<path d="M2854 2975 c20 -81 66 -135 115 -135 55 0 49 15 -37 90 -78 68 -85
72 -78 45z"/>
<path d="M1795 3105 c-31 -13 -127 -105 -110 -105 19 0 195 62 195 68 0 13
-15 29 -35 40 -15 7 -28 7 -50 -3z"/>
<path d="M3078 1014 l-27 -14 31 -73 c16 -39 32 -74 34 -76 5 -6 43 42 43 54
0 6 -12 36 -27 67 l-27 57 -27 -15z"/>
<path d="M1901 993 c-7 -16 -22 -50 -32 -76 l-19 -48 36 3 c34 3 37 7 60 62
13 33 23 60 21 61 -6 5 -46 25 -50 25 -2 0 -9 -12 -16 -27z"/>
<path d="M2679 906 c-6 -7 13 -166 20 -166 3 1 17 10 30 20 22 19 23 25 16 85
-6 63 -8 65 -34 65 -15 0 -30 -2 -32 -4z"/>
</g>
</svg>
